<svg xmlns="http://www.w3.org/2000/svg" fill="none" viewBox="0 0 128 128">
    <path d="M14.84 90V37.2H26.36V60.8C29.08 59.68 31.6133 58.2667 33.96 56.56C36.36 54.8 38.4933 52.8533 40.36 50.72C42.2267 48.5867 43.8267 46.3733 45.16 44.08C46.4933 41.7867 47.4533 39.4933 48.04 37.2H61.24C60.4933 39.8133 59.3467 42.4267 57.8 45.04C56.3067 47.6 54.52 50.0267 52.44 52.32C50.36 54.6133 48.1467 56.6667 45.8 58.48C43.5067 60.24 41.1867 61.6267 38.84 62.64V63.84C41.2933 63.84 43.48 64.1333 45.4 64.72C47.3733 65.2533 49.1067 66.1333 50.6 67.36C52.1467 68.5333 53.5067 70 54.68 71.76C55.8533 73.52 56.8933 75.6267 57.8 78.08L62.04 90H49L46.2 80.4C45.4533 77.7867 44.4667 75.7067 43.24 74.16C42.0133 72.56 40.44 71.4133 38.52 70.72C36.6 69.9733 34.0933 69.6 31 69.6H26.36V90H14.84ZM69.7619 90V37.2H91.2019C94.0819 37.2 96.6952 37.44 99.0419 37.92C101.389 38.3467 103.469 38.9867 105.282 39.84C107.095 40.6933 108.615 41.76 109.842 43.04C111.122 44.2667 112.082 45.7067 112.722 47.36C113.362 48.96 113.682 50.7467 113.682 52.72C113.682 54.5867 113.389 56.2933 112.802 57.84C112.215 59.3333 111.335 60.64 110.162 61.76C108.989 62.88 107.522 63.8133 105.762 64.56C104.002 65.2533 101.949 65.7333 99.6019 66V67.2C102.322 67.4667 104.482 68.1067 106.082 69.12C107.735 70.08 109.015 71.3867 109.922 73.04C110.882 74.6933 111.709 76.7467 112.402 79.2L115.602 90H102.882L100.402 80C99.9219 77.8667 99.2285 76.2133 98.3219 75.04C97.4152 73.8133 96.2685 72.96 94.8819 72.48C93.4952 71.9467 91.8152 71.68 89.8419 71.68H81.2819V90H69.7619ZM81.2819 63.04H90.4019C94.0285 63.04 96.8285 62.3467 98.8019 60.96C100.775 59.5733 101.762 57.4133 101.762 54.48C101.762 51.6 100.829 49.4933 98.9619 48.16C97.1485 46.7733 94.4019 46.08 90.7219 46.08H81.2819V63.04Z" />
    <style>
        path { fill: #000; }
        @media (prefers-color-scheme: dark) {
            path { fill: #FFF; }
        }
    </style>
</svg>
